<?xml version="1.0" encoding="utf-8"?>
<!-- Generator: Adobe Illustrator 27.5.0, SVG Export Plug-In . SVG Version: 6.00 Build 0)  -->
<svg version="1.1" xmlns="http://www.w3.org/2000/svg" xmlns:xlink="http://www.w3.org/1999/xlink" x="0px" y="0px"
	 viewBox="0 0 750 500" style="enable-background:new 0 0 750 500;" xml:space="preserve">
<g id="BACKGROUND">
</g>
<g id="OBJECTS">
	<g>
		<g>
			<g style="opacity:0.42;">
				<path style="fill:#C3DAF0;" d="M53.716,361.685c-7.68,2.143-15.804,4.56-21.033,11.225c-3.111,3.966-4.53,9.303-3.493,14.412
					c1.42,6.998,6.197,8.808,10.833,10.04c19.086,5.071,41.678,3.615,54.656,20.205c0.498,0.637,0.933,1.345,1.225,2.121
					c2.092,5.549-2.938,9.166-7.157,11.32c-16.505,8.426-54.424,3.425-49.514,25.276c2.127,7.974,11.203,10.324,18.723,11.226
					c92.283,11.059,185.791,9.728,277.781-3.955c9.407-1.399,18.958-2.985,27.921-6.259c5.8-2.118,7.818-9.987,3.796-15.042h0
					c-5.364-6.742-1.91-17.359,6.136-18.798c35.426-6.337,72.624-6.327,102.688,14.06c14.658,9.94,26.81,24.279,42.482,32.137
					c14.1,7.069,29.967,8.343,45.452,9.077c49.115,2.328,98.402,0.28,147.217-6.116c8.624-1.13,18.967-3.927,21.449-13.068
					c2.757-10.153-6.594-19.261-15.421-23.534c-8.827-4.273-19.368-7.943-23.054-17.733c5.944-6.698,14.388-9.749,22.249-13.341
					c7.862-3.593,15.983-8.539,19.497-17.058c3.514-8.519-2.264-28.414-10.745-29.256L53.716,361.685z"/>
			</g>
			<g>
				<path style="opacity:0.42;fill:#C3DAF0;" d="M33.676,407.926c0,1.842-2.266,3.335-5.061,3.335s-5.061-1.493-5.061-3.335
					c0-1.842,2.266-3.335,5.061-3.335S33.676,406.084,33.676,407.926z"/>
				<path style="opacity:0.42;fill:#C3DAF0;" d="M56.283,414.967c0,1.842-2.266,3.335-5.061,3.335s-5.061-1.493-5.061-3.335
					c0-1.842,2.266-3.336,5.061-3.336S56.283,413.125,56.283,414.967z"/>
				<path style="opacity:0.42;fill:#C3DAF0;" d="M717.964,417.191c0,1.842-2.266,3.335-5.061,3.335s-5.061-1.493-5.061-3.335
					s2.266-3.336,5.061-3.336S717.964,415.349,717.964,417.191z"/>
				<path style="opacity:0.42;fill:#C3DAF0;" d="M708.853,423.121c0,1.842-2.266,3.335-5.061,3.335
					c-2.795,0-5.061-1.493-5.061-3.335c0-1.842,2.266-3.336,5.061-3.336C706.587,419.785,708.853,421.279,708.853,423.121z"/>
				<path style="opacity:0.42;fill:#C3DAF0;" d="M47.173,421.638c0,1.842-2.266,3.335-5.061,3.335c-2.795,0-5.061-1.493-5.061-3.335
					s2.266-3.336,5.061-3.336C44.907,418.303,47.173,419.796,47.173,421.638z"/>
				<path style="opacity:0.42;fill:#C3DAF0;" d="M419.347,430.903c0,1.842-2.266,3.336-5.061,3.336
					c-2.795,0-5.061-1.493-5.061-3.336s2.266-3.335,5.061-3.335C417.081,427.568,419.347,429.061,419.347,430.903z"/>
				<path style="opacity:0.42;fill:#C3DAF0;" d="M444.316,434.609c0,1.842-2.266,3.335-5.061,3.335
					c-2.795,0-5.061-1.493-5.061-3.335c0-1.842,2.266-3.335,5.061-3.335C442.05,431.274,444.316,432.767,444.316,434.609z"/>
				<path style="opacity:0.42;fill:#C3DAF0;" d="M434.442,443.875c0,1.073-1.32,1.943-2.948,1.943c-1.628,0-2.948-0.87-2.948-1.943
					c0-1.073,1.32-1.943,2.948-1.943C433.122,441.932,434.442,442.802,434.442,443.875z"/>
			</g>
		</g>
		<g>
			<g style="opacity:0.73;">
				<g>
					<g>
						<g>
							<rect x="195.576" y="185.693" style="fill:#CDE1F7;" width="7.227" height="151.971"/>
							<rect x="205.579" y="185.693" style="fill:#CDE1F7;" width="188.768" height="151.971"/>
							<rect x="160.04" y="185.693" style="fill:#CDE1F7;" width="6.612" height="151.971"/>
							<rect x="-0.047" y="185.693" style="fill:#CDE1F7;" width="157.311" height="151.971"/>
						</g>
						<g>
							<rect x="645.836" y="185.693" style="fill:#CDE1F7;" width="7.227" height="151.971"/>
							<rect x="655.839" y="185.693" style="fill:#CDE1F7;" width="93.661" height="151.971"/>
							<rect x="610.301" y="185.693" style="fill:#CDE1F7;" width="6.612" height="151.971"/>
							<rect x="417.399" y="185.693" style="fill:#CDE1F7;" width="190.126" height="151.971"/>
						</g>
					</g>
				</g>
				<g>
					<g>
						<g>
							<rect x="195.576" y="23.08" style="fill:#CDE1F7;" width="7.227" height="151.971"/>
							<rect x="205.579" y="23.08" style="fill:#CDE1F7;" width="188.768" height="151.971"/>
							<rect x="160.04" y="23.08" style="fill:#CDE1F7;" width="6.612" height="151.971"/>
							<rect x="-0.047" y="23.08" style="fill:#CDE1F7;" width="157.311" height="151.971"/>
						</g>
						<g>
							<rect x="645.836" y="23.08" style="fill:#CDE1F7;" width="7.227" height="151.971"/>
							<rect x="655.839" y="23.08" style="fill:#CDE1F7;" width="93.661" height="151.971"/>
							<rect x="610.301" y="23.08" style="fill:#CDE1F7;" width="6.612" height="151.971"/>
							<rect x="417.399" y="23.08" style="fill:#CDE1F7;" width="190.126" height="151.971"/>
						</g>
					</g>
				</g>
			</g>
			<g>
				<g>
					<g>
						<path style="fill:#8DB8D6;" d="M614.956,351.93h-83.438V229.619c0-0.935,0.758-1.693,1.693-1.693h80.052
							c0.935,0,1.693,0.758,1.693,1.693V351.93z"/>
					</g>
					<g>
						<path style="fill:#7D9DBF;stroke:#7D9DBF;stroke-width:0.8527;stroke-miterlimit:10;" d="M604.254,181.308h-9.715v-2.821
							h-5.957v11.758h-6.271v37.625h18.813v-37.625h-6.584v-7.995h9.715c0.78,0,1.414,0.635,1.414,1.414v2.347h0.943v-2.347
							C606.611,182.365,605.553,181.308,604.254,181.308z"/>
						<path style="fill:#7D9DBF;stroke:#7D9DBF;stroke-width:0.8527;stroke-miterlimit:10;" d="M572.286,228.591h-33.26
							c-1.651,0-2.99-1.339-2.99-2.99v-0.006c0-1.651,1.339-2.99,2.99-2.99h33.26c1.651,0,2.99,1.339,2.99,2.99v0.006
							C575.276,227.252,573.938,228.591,572.286,228.591z"/>
						<path style="fill:#7D9DBF;stroke:#7D9DBF;stroke-width:0.8527;stroke-miterlimit:10;" d="M572.286,220.61h-33.26
							c-1.651,0-2.99-1.339-2.99-2.99v-0.006c0-1.651,1.339-2.99,2.99-2.99h33.26c1.651,0,2.99,1.339,2.99,2.99v0.006
							C575.276,219.271,573.938,220.61,572.286,220.61z"/>
						<path style="fill:#7D9DBF;stroke:#7D9DBF;stroke-width:0.8527;stroke-miterlimit:10;" d="M572.286,212.629h-33.26
							c-1.651,0-2.99-1.339-2.99-2.99v-0.006c0-1.651,1.339-2.99,2.99-2.99h33.26c1.651,0,2.99,1.339,2.99,2.99v0.006
							C575.276,211.29,573.938,212.629,572.286,212.629z"/>
					</g>
				</g>
				<g style="opacity:0.84;">
					<path style="fill:#7A98BA;stroke:#7A98BA;stroke-width:0.7555;stroke-miterlimit:10;" d="M225.134,347.163h-4.413V206.91h2.357
						v-5.304h-9.429v5.304h2.357v25.8H55.127v-25.8h2.357v-5.304h-9.429v5.304h2.357v140.253h-4.409
						c-1.957,0-3.544,1.587-3.544,3.544v5.295h20.625v-5.295c0-1.957-1.587-3.544-3.544-3.544h-4.413v-19.741h160.878v19.741h-4.409
						c-1.957,0-3.544,1.587-3.544,3.544v5.295h20.626v-5.295C228.678,348.75,227.091,347.163,225.134,347.163z M216.006,237.259
						v38.304H55.127v-38.304H216.006z M55.127,323.297v-43.608h160.878v43.608H55.127z"/>
					<g>
						<circle style="fill:#7A98BA;stroke:#7A98BA;stroke-width:0.7555;stroke-miterlimit:10;" cx="68.976" cy="223.706" r="9.134"/>
						<circle style="fill:#7A98BA;stroke:#7A98BA;stroke-width:0.7555;stroke-miterlimit:10;" cx="90.191" cy="223.706" r="9.134"/>
					</g>
					<g>
						
							<circle style="fill:#7A98BA;stroke:#7A98BA;stroke-width:0.7555;stroke-miterlimit:10;" cx="170.449" cy="221.933" r="12.081"/>
						
							<circle style="fill:#7A98BA;stroke:#7A98BA;stroke-width:0.7555;stroke-miterlimit:10;" cx="198.507" cy="221.933" r="12.081"/>
					</g>
					<g>
						
							<ellipse transform="matrix(0.3292 -0.9443 0.9443 0.3292 -204.4718 243.2637)" style="fill:#7A98BA;stroke:#7A98BA;stroke-width:0.7555;stroke-miterlimit:10;" cx="68.976" cy="265.541" rx="9.134" ry="9.134"/>
						
							<ellipse transform="matrix(0.2204 -0.9754 0.9754 0.2204 -188.6986 294.993)" style="fill:#7A98BA;stroke:#7A98BA;stroke-width:0.7555;stroke-miterlimit:10;" cx="90.191" cy="265.541" rx="9.134" ry="9.134"/>
					</g>
					<g>
						
							<circle style="fill:#7A98BA;stroke:#7A98BA;stroke-width:0.7555;stroke-miterlimit:10;" cx="115.835" cy="264.655" r="10.902"/>
						
							<circle style="fill:#7A98BA;stroke:#7A98BA;stroke-width:0.7555;stroke-miterlimit:10;" cx="141.155" cy="264.655" r="10.902"/>
					</g>
					<g>
						
							<circle style="fill:#7A98BA;stroke:#7A98BA;stroke-width:0.7555;stroke-miterlimit:10;" cx="170.449" cy="263.769" r="12.081"/>
						
							<circle style="fill:#7A98BA;stroke:#7A98BA;stroke-width:0.7555;stroke-miterlimit:10;" cx="198.507" cy="263.769" r="12.081"/>
					</g>
					<g>
						<circle style="fill:#7A98BA;stroke:#7A98BA;stroke-width:0.7555;stroke-miterlimit:10;" cx="68.976" cy="313.275" r="9.134"/>
						<circle style="fill:#7A98BA;stroke:#7A98BA;stroke-width:0.7555;stroke-miterlimit:10;" cx="90.191" cy="313.275" r="9.134"/>
					</g>
					<g>
						
							<ellipse transform="matrix(0.7071 -0.7071 0.7071 0.7071 -186.9649 173.4039)" style="fill:#7A98BA;stroke:#7A98BA;stroke-width:0.7555;stroke-miterlimit:10;" cx="115.835" cy="312.389" rx="10.902" ry="10.902"/>
						
							<ellipse transform="matrix(0.1602 -0.9871 0.9871 0.1602 -189.81 401.6823)" style="fill:#7A98BA;stroke:#7A98BA;stroke-width:0.7555;stroke-miterlimit:10;" cx="141.155" cy="312.389" rx="10.902" ry="10.902"/>
					</g>
					<g>
						
							<circle style="fill:#7A98BA;stroke:#7A98BA;stroke-width:0.7555;stroke-miterlimit:10;" cx="170.449" cy="311.503" r="12.081"/>
						
							<circle style="fill:#7A98BA;stroke:#7A98BA;stroke-width:0.7555;stroke-miterlimit:10;" cx="198.507" cy="311.503" r="12.081"/>
					</g>
				</g>
				<g style="opacity:0.84;">
					<path style="fill:#7A98BA;stroke:#7A98BA;stroke-width:0.7555;stroke-miterlimit:10;" d="M420.668,347.163h-4.413V206.91h2.357
						v-5.304h-9.429v5.304h2.357v25.8H250.661v-25.8h2.357v-5.304h-9.429v5.304h2.357v140.253h-4.409
						c-1.957,0-3.544,1.587-3.544,3.544v5.295h20.626v-5.295c0-1.957-1.587-3.544-3.544-3.544h-4.413v-19.741H411.54v19.741h-4.409
						c-1.957,0-3.544,1.587-3.544,3.544v5.295h20.625v-5.295C424.212,348.75,422.625,347.163,420.668,347.163z M411.54,237.259
						v38.304H250.661v-38.304H411.54z M250.661,323.297v-43.608H411.54v43.608H250.661z"/>
					<g>
						<circle style="fill:#7A98BA;stroke:#7A98BA;stroke-width:0.7555;stroke-miterlimit:10;" cx="264.51" cy="223.706" r="9.134"/>
						
							<circle style="fill:#7A98BA;stroke:#7A98BA;stroke-width:0.7555;stroke-miterlimit:10;" cx="285.725" cy="223.706" r="9.134"/>
					</g>
					<g>
						
							<circle style="fill:#7A98BA;stroke:#7A98BA;stroke-width:0.7555;stroke-miterlimit:10;" cx="365.983" cy="221.933" r="12.081"/>
						
							<circle style="fill:#7A98BA;stroke:#7A98BA;stroke-width:0.7555;stroke-miterlimit:10;" cx="394.042" cy="221.933" r="12.081"/>
					</g>
					<g>
						
							<ellipse transform="matrix(0.1645 -0.9864 0.9864 0.1645 -40.9263 482.7658)" style="fill:#7A98BA;stroke:#7A98BA;stroke-width:0.7555;stroke-miterlimit:10;" cx="264.51" cy="265.541" rx="9.134" ry="9.134"/>
						
							<ellipse transform="matrix(0.1597 -0.9872 0.9872 0.1597 -22.0456 505.1835)" style="fill:#7A98BA;stroke:#7A98BA;stroke-width:0.7555;stroke-miterlimit:10;" cx="285.725" cy="265.541" rx="9.134" ry="9.134"/>
					</g>
					<g>
						
							<circle style="fill:#7A98BA;stroke:#7A98BA;stroke-width:0.7555;stroke-miterlimit:10;" cx="311.369" cy="264.655" r="10.902"/>
						
							<circle style="fill:#7A98BA;stroke:#7A98BA;stroke-width:0.7555;stroke-miterlimit:10;" cx="336.689" cy="264.655" r="10.902"/>
					</g>
					<g>
						
							<circle style="fill:#7A98BA;stroke:#7A98BA;stroke-width:0.7555;stroke-miterlimit:10;" cx="365.983" cy="263.769" r="12.081"/>
						
							<circle style="fill:#7A98BA;stroke:#7A98BA;stroke-width:0.7555;stroke-miterlimit:10;" cx="394.042" cy="263.769" r="12.081"/>
					</g>
					<g>
						<circle style="fill:#7A98BA;stroke:#7A98BA;stroke-width:0.7555;stroke-miterlimit:10;" cx="264.51" cy="313.275" r="9.134"/>
						
							<circle style="fill:#7A98BA;stroke:#7A98BA;stroke-width:0.7555;stroke-miterlimit:10;" cx="285.725" cy="313.275" r="9.134"/>
					</g>
					<g>
						
							<ellipse transform="matrix(0.1596 -0.9872 0.9872 0.1596 -46.7204 569.8943)" style="fill:#7A98BA;stroke:#7A98BA;stroke-width:0.7555;stroke-miterlimit:10;" cx="311.369" cy="312.389" rx="10.902" ry="10.902"/>
						
							<ellipse transform="matrix(0.1596 -0.9872 0.9872 0.1596 -25.4418 594.8904)" style="fill:#7A98BA;stroke:#7A98BA;stroke-width:0.7555;stroke-miterlimit:10;" cx="336.689" cy="312.389" rx="10.902" ry="10.902"/>
					</g>
					<g>
						
							<circle style="fill:#7A98BA;stroke:#7A98BA;stroke-width:0.7555;stroke-miterlimit:10;" cx="365.983" cy="311.503" r="12.081"/>
						
							<circle style="fill:#7A98BA;stroke:#7A98BA;stroke-width:0.7555;stroke-miterlimit:10;" cx="394.042" cy="311.503" r="12.081"/>
					</g>
				</g>
			</g>
		</g>
	</g>
	<g>
		
			<ellipse style="opacity:0.54;fill:#768ABF;stroke:#768ABF;stroke-width:0.5152;stroke-miterlimit:10;" cx="72.62" cy="449.255" rx="16.1" ry="3.175"/>
		
			<ellipse style="opacity:0.54;fill:#768ABF;stroke:#768ABF;stroke-width:0.5152;stroke-miterlimit:10;" cx="108.534" cy="449.255" rx="16.1" ry="3.175"/>
		<g>
			<path style="fill:#63B9DB;stroke:#63B9DB;stroke-width:0.8161;stroke-miterlimit:10;" d="M124,343.97H61.122v-62.644
				c0-12.157,9.855-22.012,22.012-22.012h18.854c12.157,0,22.012,9.855,22.012,22.012V343.97z"/>
			<path style="fill:#63B9DB;stroke:#63B9DB;stroke-width:0.8161;stroke-miterlimit:10;" d="M67.491,368.158h48.382
				c6.501,0,11.771-5.27,11.771-11.771v-0.008c0-6.501-5.27-11.772-11.771-11.772H67.491c-6.501,0-11.772,5.27-11.772,11.772v0.008
				C55.72,362.887,60.99,368.158,67.491,368.158z"/>
			<g>
				
					<rect x="78.634" y="368.158" style="fill:#63B9DB;stroke:#63B9DB;stroke-width:0.8161;stroke-miterlimit:10;" width="13.186" height="66.833"/>
				
					<rect x="96" y="368.158" style="fill:#63B9DB;stroke:#63B9DB;stroke-width:0.8161;stroke-miterlimit:10;" width="13.186" height="66.833"/>
			</g>
			<path style="fill:#63B9DB;stroke:#63B9DB;stroke-width:0.9352;stroke-miterlimit:10;" d="M128.419,446.084H58.883v-0.414
				c0-5.814,4.713-10.527,10.527-10.527h48.481c5.814,0,10.527,4.713,10.527,10.527V446.084z"/>
		</g>
		<g>
			<g>
				<g>
					<g>
						<path d="M84.12,248.301c0,0-4.344-13.525,9.755-16.312c0,0,12.787,1.148,10.738,14.509L84.12,248.301z"/>
						<g>
							<path d="M91.904,234.951c-2.099,0.175-4.186-1.023-5.326-2.795c-1.14-1.771-1.392-4.025-0.949-6.085
								c0.193-0.896,0.609-1.868,1.471-2.179c1.505-0.543,3.256,1.287,4.631,0.468c0.827-0.493,0.918-1.62,1.16-2.551
								c0.636-2.442,3.08-4.285,5.604-4.226c1.745,0.041,3.404,0.905,4.653,2.125c1.249,1.22,2.123,2.775,2.802,4.384
								c0.418,0.99,0.771,2.022,0.865,3.092c0.093,1.059-0.071,2.126-0.345,3.153c-0.434,1.628-1.162,3.205-2.302,4.446
								c-0.303,0.33-0.644,0.642-1.06,0.809c-0.381,0.153-0.8,0.177-1.211,0.184c-1.791,0.031-3.587-0.212-5.305-0.717"/>
						</g>
						<path style="fill:none;stroke:#000000;stroke-width:0.986;stroke-linecap:round;stroke-miterlimit:10;" d="M101.733,237.232
							c1.579,0.467,3.377,0.24,4.72-0.712c1.343-0.952,2.162-2.645,1.952-4.278c-0.163-1.267-0.882-2.38-1.42-3.539
							c-0.538-1.159-0.894-2.544-0.325-3.687c0.204-0.41,0.515-0.76,0.723-1.168c0.576-1.136,0.229-2.598-0.639-3.53
							c-0.867-0.932-2.159-1.383-3.43-1.462c-1.271-0.078-2.537,0.182-3.774,0.484"/>
						<g>
							
								<path style="fill:#FDCFC6;stroke:#FDCFC6;stroke-width:0.9857;stroke-linecap:round;stroke-linejoin:round;stroke-miterlimit:10;" d="
								M89.025,254.037c0,0-1.788,17.089-1.972,18.464c0,0,2.832,36.978,14.968,0.884c0,0-1.374-4.102-3.947-14.685L89.025,254.037z
								"/>
							<path d="M99.059,257.489c0.062,2.311-3.04,5.2-5.185,5.387c-2.613,0.227-5.034-3.814-5.352-5.69
								c-0.268-1.578,3.685-3.674,5.838-3.732S98.997,255.178,99.059,257.489z"/>
						</g>
						<g>
							<g>
								<g>
									
										<path style="fill:#FDCFC6;stroke:#FDCFC6;stroke-width:0.9857;stroke-linecap:round;stroke-linejoin:round;stroke-miterlimit:10;" d="
										M84.024,248.369l2.989-0.282l0.314,3.333l-2.989,0.282c-0.921,0.087-1.737-0.589-1.824-1.51h0
										C82.427,249.273,83.103,248.456,84.024,248.369z"/>
									
										<path style="fill:#E09D91;stroke:#E09D91;stroke-width:0.9857;stroke-linecap:round;stroke-linejoin:round;stroke-miterlimit:10;" d="
										M83.988,249.267l1.234-0.116l0.13,1.376l-1.234,0.116c-0.38,0.036-0.717-0.243-0.753-0.623l0,0
										C83.329,249.64,83.608,249.303,83.988,249.267z"/>
								</g>
								<g>
									
										<path style="fill:#FDCFC6;stroke:#FDCFC6;stroke-width:0.9857;stroke-linecap:round;stroke-linejoin:round;stroke-miterlimit:10;" d="
										M104.445,249.96l-3.001-0.114l0.127-3.346l3.001,0.114c0.924,0.035,1.645,0.813,1.609,1.737l0,0
										C106.146,249.274,105.369,249.995,104.445,249.96z"/>
									
										<path style="fill:#E09D91;stroke:#E09D91;stroke-width:0.9857;stroke-linecap:round;stroke-linejoin:round;stroke-miterlimit:10;" d="
										M104.579,247.555l-1.238-0.068l-0.076,1.38l1.238,0.068c0.381,0.021,0.707-0.271,0.728-0.652l0,0
										C105.252,247.902,104.96,247.576,104.579,247.555z"/>
								</g>
								
									<path style="fill:#FDCFC6;stroke:#FDCFC6;stroke-width:0.9857;stroke-linecap:round;stroke-linejoin:round;stroke-miterlimit:10;" d="
									M95.082,238.48L95.082,238.48c5.573,0.224,9.05,5.013,8.826,10.585l-0.017,0.426c-0.224,5.572-4.834,10.372-9.509,10.109
									l-0.04-0.012c-3.696-0.382-9.875-5.441-9.651-11.014l0.017-0.426C84.932,242.576,89.51,238.256,95.082,238.48z"/>
							</g>
							<g>
								<path style="fill:#08022B;" d="M96.123,249.639c0.012,0.4,0.269,0.717,0.573,0.708c0.304-0.009,0.54-0.342,0.527-0.742
									c-0.012-0.4-0.269-0.717-0.573-0.708C96.347,248.906,96.111,249.238,96.123,249.639z"/>
								<path style="fill:#08022B;" d="M91.835,249.767c-0.018,0.4,0.214,0.735,0.518,0.749c0.303,0.013,0.564-0.3,0.582-0.7
									c0.018-0.4-0.214-0.736-0.518-0.749C92.113,249.053,91.852,249.367,91.835,249.767z"/>
								<path style="fill:#D98171;" d="M93.808,252.008l1.45-0.002c0.179,0,0.297-0.233,0.223-0.437l-0.662-1.822
									c-0.084-0.232-0.343-0.243-0.439-0.02l-0.788,1.824C93.503,251.757,93.622,252.008,93.808,252.008z"/>
								<path style="fill:#08022B;" d="M90.378,247.965c-0.439,0.17,0.427-0.86,0.972-0.87c0.545-0.01,0.994,0.364,1.002,0.835
									C92.352,247.93,91.433,247.557,90.378,247.965z"/>
								<path style="fill:#08022B;" d="M98.525,247.645c0.452,0.134-0.495-0.823-1.039-0.788c-0.544,0.034-0.961,0.443-0.931,0.913
									C96.554,247.77,97.44,247.324,98.525,247.645z"/>
							</g>
							<path style="fill:#FFFFFF;" d="M94.157,254.848l0.419,0.012c1.478,0.041,2.697-0.677,2.723-1.604l0,0l-5.771-0.161l0,0
								C91.502,254.022,92.679,254.807,94.157,254.848z"/>
						</g>
						<g>
							<path d="M94.612,236.579c-3.462,1.708,9.837,9.345,9.837,9.345S106.58,230.677,94.612,236.579z"/>
							<path d="M94.53,236.333c0,0-6.454,5.775-7.295,6.968c-0.961,1.362-3.602,3.358-3.602,3.358S86.49,235.372,94.53,236.333z"/>
						</g>
						<path style="fill:none;stroke:#000000;stroke-width:0.986;stroke-linecap:round;stroke-miterlimit:10;" d="M103.579,240.264
							c-0.014,1.536,0.077,3.073,0.273,4.597c0.071,0.55,0.2,1.17,0.675,1.458c0.333,0.202,0.749,0.182,1.136,0.146
							c0.638-0.059,1.288-0.143,1.914-0.005c0.626,0.138,1.236,0.553,1.402,1.172c0.265,0.983-0.627,1.847-1.26,2.644
							c-0.912,1.148-1.405,2.667-1.154,4.112c0.251,1.445,1.31,2.765,2.724,3.158"/>
						<g>
							<g>
								<path d="M94.337,233.348c-2.446,2.061-3.465,6.625-0.623,8.83c0.699,0.542,1.42,0.811,2.324,0.766
									c0.525-0.026,1.746-0.708,2.181-0.426c0.396,0.256,0.207,1.984,0.266,2.418c0.122,0.899,0.364,1.603,0.805,2.396
									c1.543,2.773,5.803,0.289,4.257-2.488c-0.502-0.902-0.188-2.182-0.412-3.184c-0.253-1.136-0.84-2.096-1.712-2.855
									c-0.771-0.671-1.717-1.089-2.727-1.231c-1.176-0.166-2.146,0.48-3.24,0.397c0.581,0.241,1.162,0.481,1.743,0.722
									c-0.763-0.604,0.175-1.481,0.623-1.858C100.252,234.787,96.749,231.315,94.337,233.348L94.337,233.348z"/>
							</g>
						</g>
					</g>
					<g>
						<path style="fill:#FFFFFF;" d="M73.13,293.663"/>
						
							<path style="fill:#FDCFC6;stroke:#FDCFC6;stroke-width:0.9857;stroke-linecap:round;stroke-linejoin:round;stroke-miterlimit:10;" d="
							M69.086,286.048c-5.41-9.548-0.359-74.913,0.139-80.255c0.077-0.825,0.602-1.539,1.366-1.86l7.722-3.245
							c1.198-0.503,2.571,0.111,2.993,1.34l0,0c0.073,0.213,0.114,0.435,0.121,0.66l0.248,7.997
							c0.041,1.308-0.612,2.541-1.716,3.244l0,0l2.495,50.796C82.453,264.725,71.862,290.947,69.086,286.048z"/>
						<path style="fill:#C73E45;stroke:#C73E45;stroke-width:0.6837;stroke-miterlimit:10;" d="M83.109,264.012
							c1.312,4.918,3.716,7.541,3.716,7.541s0.891,16.852,6.448,16.722c5.558-0.13,9.072-15.629,9.072-15.629l11.165,3.537
							c5.834,1.422,8.602,8.105,5.48,13.235l-7.107,11.678c0,0-0.934,20.071-0.788,26.324l-39.463,0.318l-1.202-35.42
							c0,0-0.469,7.208-1.344-5.953L83.109,264.012z"/>
						<g>
							<path d="M58.424,198.687c0.553,0,1.042,0.252,1.376,0.641v-1.662c0-1.418,1.149-2.567,2.567-2.567
								c1.418,0,2.567,1.149,2.567,2.567v6.217h19.048v-6.217c0-1.418,1.149-2.567,2.567-2.567c1.418,0,2.567,1.149,2.567,2.567
								v1.662c0.334-0.389,0.823-0.641,1.376-0.641c1.005,0,1.82,0.815,1.82,1.82v12.171c0,1.005-0.815,1.82-1.82,1.82
								c-0.553,0-1.042-0.252-1.376-0.641v0.971c0,1.418-1.149,2.567-2.567,2.567c-1.418,0-2.567-1.149-2.567-2.567v-5.631H64.934
								v5.631c0,1.418-1.149,2.567-2.567,2.567c-1.418,0-2.567-1.149-2.567-2.567v-0.971c-0.334,0.389-0.823,0.641-1.376,0.641
								c-1.005,0-1.82-0.815-1.82-1.82v-12.171C56.603,199.502,57.418,198.687,58.424,198.687z"/>
							<g>
								
									<path style="fill:#F3C7BE;stroke:#F3C7BE;stroke-width:0.9418;stroke-linecap:round;stroke-linejoin:round;stroke-miterlimit:10;" d="
									M81.5,203.952l-4.918,2.459l-8.197,5.246l0.164-7.541l9.136-3.906C77.685,200.21,81.172,198.214,81.5,203.952z"/>
								
									<path style="fill:#F3DCD8;stroke:#F3DCD8;stroke-width:0.9638;stroke-linecap:round;stroke-linejoin:round;stroke-miterlimit:10;" d="
									M80.744,208.469c-0.013-0.941-0.714-1.724-1.647-1.846l-4.266-0.558c-0.454-0.059-0.891,0.197-1.059,0.623l0,0
									c-0.154,0.388-0.05,0.831,0.26,1.111l3.602,3.248c1.064,0.96,2.877,0.456,3.106-0.958c0.015-0.095,0.023-0.191,0.022-0.289
									C80.756,209.347,80.75,208.887,80.744,208.469z"/>
							</g>
						</g>
						<path style="opacity:0.22;fill:#768ABF;stroke:#768ABF;stroke-width:0.7555;stroke-miterlimit:10;" d="M113.51,276.184
							l-41.878,51.555l39.463-0.318l0.788-26.324l7.107-11.678C118.99,289.419,123.528,280.215,113.51,276.184z"/>
					</g>
				</g>
			</g>
			<g>
				<path d="M102.99,275.9c0.553,0,1.042,0.252,1.376,0.641v-1.662c0-1.418,1.149-2.567,2.567-2.567
					c1.418,0,2.567,1.149,2.567,2.567v6.217h19.048v-6.217c0-1.418,1.149-2.567,2.567-2.567c1.418,0,2.567,1.149,2.567,2.567v1.662
					c0.334-0.389,0.823-0.641,1.376-0.641c1.005,0,1.82,0.815,1.82,1.821v12.17c0,1.005-0.815,1.82-1.82,1.82
					c-0.553,0-1.042-0.252-1.376-0.641v0.972c0,1.418-1.149,2.567-2.567,2.567c-1.418,0-2.567-1.149-2.567-2.567v-5.631H109.5v5.631
					c0,1.418-1.149,2.567-2.567,2.567c-1.418,0-2.567-1.149-2.567-2.567v-0.972c-0.334,0.389-0.823,0.641-1.376,0.641
					c-1.005,0-1.82-0.815-1.82-1.82v-12.17C101.169,276.715,101.984,275.9,102.99,275.9z"/>
				<path style="fill:#FDCEC6;" d="M122.924,280.691c-0.176,2.879-0.454,3.227-0.474,5.412c-0.006,0.728,0.07,0.447,0.739,0.423
					c1.432-0.053,2.387-0.212,3.13,0c1.108,0.316-4.564,7.045-4.564,7.045s-0.004,0-0.01,0.001
					c1.176,2.177,2.739,17.57,2.668,28.292c-0.044,6.631-3.87,12.322-10.465,11.458l-1.22-0.175
					c-6.782-0.889-10.658-10.288-8.736-16.821c2.835-9.638,7.185-21.28,8.33-23.264c-0.001-0.003-0.003-0.006-0.004-0.009
					c-0.341-1.06-1.713-10.688-0.319-12.36C112.793,279.736,123.178,276.535,122.924,280.691z"/>
			</g>
		</g>
		<g>
			<path style="fill:#FFFFFF;" d="M99.277,364.657H80.905c-10.043,0-20.46-8.402-18.184-18.184c1.103-4.739,9.548-19.37,9.548-19.37
				h39.463c0,0,5.086,14.714,5.729,19.37C118.834,356.421,109.32,364.657,99.277,364.657z"/>
			
				<path style="fill:#FDCFC6;stroke:#FDCFC6;stroke-width:0.9857;stroke-linecap:round;stroke-linejoin:round;stroke-miterlimit:10;" d="
				M83.62,424.488l-15.701,0.106l-10.927-85.65c-0.512-7.613,8.699-14.069,16.329-14.069h0c7.314,0,17.135,5.954,17.088,13.268
				L83.62,424.488z"/>
			
				<path style="fill:#FDCFC6;stroke:#FDCFC6;stroke-width:0.9857;stroke-linecap:round;stroke-linejoin:round;stroke-miterlimit:10;" d="
				M116.824,424.807l-15.913,0.318l-11.457-86.181c-0.512-7.613,8.699-14.069,16.329-14.069l0,0c7.314,0,17.135,5.954,17.088,13.268
				L116.824,424.807z"/>
		</g>
		<g>
			<path style="fill:#F54A53;" d="M117.142,424.807l-2.923,0.055c-0.278-1.655-1.708-2.919-3.442-2.919h-3.501
				c-1.802,0-3.268,1.366-3.462,3.116l-3.54,0.067c0,0,1.432,22.596,9.548,22.278C117.303,447.109,117.142,424.807,117.142,424.807z
				"/>
			<path style="fill:none;stroke:#FFFFFF;stroke-width:0.957;stroke-miterlimit:10;" d="M103.776,425.443l2.145,7.865
				c0.425,1.557,1.839,2.637,3.453,2.637h0.007c1.73,0,3.212-1.237,3.522-2.939l1.375-7.563"/>
		</g>
		<g>
			<path style="fill:#F54A53;" d="M84.044,424.276l-2.923,0.055c-0.278-1.655-1.708-2.919-3.442-2.919h-3.501
				c-1.802,0-3.268,1.366-3.462,3.116l-3.54,0.067c0,0,1.432,22.596,9.548,22.278C84.204,446.579,84.044,424.276,84.044,424.276z"/>
			<path style="fill:none;stroke:#FFFFFF;stroke-width:0.957;stroke-miterlimit:10;" d="M70.677,424.913l2.145,7.865
				c0.425,1.557,1.839,2.637,3.453,2.637h0.007c1.73,0,3.212-1.237,3.522-2.939l1.375-7.563"/>
		</g>
	</g>
	<g>
		<g>
			<path style="fill:#63B9DB;stroke:#63B9DB;stroke-width:0.983;stroke-miterlimit:10;" d="M501.603,396.322h-21.158v-49.579h13.456
				c3.916,0,7.09-3.174,7.09-7.09c0-3.916-3.174-7.09-7.09-7.09H335.428c-3.916,0-7.09,3.174-7.09,7.09
				c0,3.916,3.174,7.09,7.09,7.09h138.441v49.579H301.462v-49.579h18.928c3.916,0,7.09-3.174,7.09-7.09
				c0-3.916-3.174-7.09-7.09-7.09h-33.854c-3.916,0-7.09,3.174-7.09,7.09c0,3.916,3.174,7.09,7.09,7.09h8.35v49.579h-16.869
				c-4.737,0-8.577,3.84-8.577,8.578H510.18C510.18,400.163,506.34,396.322,501.603,396.322z"/>
			<rect x="447.1" y="332.011" style="fill:#FFFFFF;" width="21.941" height="37.482"/>
		</g>
		<g>
			<g>
				<path style="fill:#63B9DB;stroke:#63B9DB;stroke-width:1.0727;stroke-miterlimit:10;" d="M584.55,383.97
					c0.593,0,1.117,0.27,1.475,0.687v-1.781c0-1.52,1.232-2.752,2.752-2.752s2.752,1.232,2.752,2.752v6.664h20.419v-6.664
					c0-1.52,1.232-2.752,2.752-2.752c1.52,0,2.752,1.232,2.752,2.752v1.781c0.358-0.417,0.883-0.687,1.475-0.687
					c1.078,0,1.951,0.874,1.951,1.951v13.046c0,1.078-0.874,1.951-1.951,1.951c-0.593,0-1.117-0.27-1.475-0.687v1.041
					c0,1.52-1.232,2.752-2.752,2.752c-1.52,0-2.752-1.232-2.752-2.752v-6.036h-20.419v6.036c0,1.52-1.232,2.752-2.752,2.752
					s-2.752-1.232-2.752-2.752v-1.041c-0.358,0.417-0.883,0.687-1.475,0.687c-1.078,0-1.951-0.874-1.951-1.951v-13.046
					C582.599,384.844,583.473,383.97,584.55,383.97z"/>
			</g>
			<g>
				<path style="fill:#63B9DB;stroke:#63B9DB;stroke-width:1.0727;stroke-miterlimit:10;" d="M627.781,389.624
					c0.593,0,1.117,0.27,1.475,0.687v-1.781c0-1.52,1.232-2.752,2.752-2.752c1.52,0,2.752,1.232,2.752,2.752v6.664h20.419v-6.664
					c0-1.52,1.232-2.752,2.752-2.752c1.52,0,2.752,1.232,2.752,2.752v1.781c0.358-0.417,0.882-0.687,1.475-0.687
					c1.078,0,1.951,0.874,1.951,1.951v13.046c0,1.078-0.874,1.951-1.951,1.951c-0.593,0-1.117-0.27-1.475-0.687v1.041
					c0,1.52-1.232,2.752-2.752,2.752c-1.52,0-2.752-1.232-2.752-2.752v-6.036h-20.419v6.036c0,1.52-1.232,2.752-2.752,2.752
					c-1.52,0-2.752-1.232-2.752-2.752v-1.041c-0.358,0.417-0.882,0.687-1.475,0.687c-1.078,0-1.951-0.874-1.951-1.951v-13.046
					C625.829,390.497,626.703,389.624,627.781,389.624z"/>
			</g>
		</g>
	</g>
	<g>
		<g>
			<path style="opacity:0.54;fill:#768ABF;stroke:#768ABF;stroke-width:0.7555;stroke-miterlimit:10;" d="M637.553,451.726
				c0,2.571-10.571,4.655-23.61,4.655s-23.61-2.084-23.61-4.655s10.571-4.656,23.61-4.656S637.553,449.155,637.553,451.726z"/>
			<path style="opacity:0.54;fill:#768ABF;stroke:#768ABF;stroke-width:0.7555;stroke-miterlimit:10;" d="M710.047,451.726
				c0,2.571-10.571,4.655-23.61,4.655c-13.04,0-23.61-2.084-23.61-4.655s10.571-4.656,23.61-4.656
				C699.476,447.07,710.047,449.155,710.047,451.726z"/>
			
				<polygon style="fill:#FFAD9E;stroke:#FFAD9E;stroke-width:0.9141;stroke-linecap:round;stroke-linejoin:round;stroke-miterlimit:10;" points="
				637.276,263.25 638.661,276.785 664.857,277.89 668.464,262.826 			"/>
			<polygon style="opacity:0.22;fill:#768ABF;stroke:#768ABF;stroke-width:0.7555;stroke-miterlimit:10;" points="668.464,262.826 
				638.661,276.785 664.857,277.89 			"/>
			<g>
				<g>
					<g>
						<g>
							<polygon style="fill:#FFAD9E;" points="680.659,433.25 681.28,447.127 709.353,446.644 693.452,439.786 691.956,432.782 
															"/>
							<polygon style="fill:#D07C6C;" points="691.956,432.782 681.28,447.127 680.659,433.25 							"/>
							<polygon points="695.036,439.353 709.353,446.644 681.28,447.127 680.854,439.887 							"/>
							
								<rect x="681.172" y="446.785" transform="matrix(1 -0.0098 0.0098 1 -4.3847 6.8645)" style="fill:#3A83B5;stroke:#3A83B5;stroke-width:0.6837;stroke-miterlimit:10;" width="28.549" height="4.52"/>
							<g>
								
									<line style="fill:none;stroke:#FFFFFF;stroke-width:0.4746;stroke-miterlimit:10;" x1="696.758" y1="440.293" x2="693.656" y2="442.224"/>
								
									<line style="fill:none;stroke:#FFFFFF;stroke-width:0.4746;stroke-miterlimit:10;" x1="699.485" y1="441.623" x2="696.383" y2="443.553"/>
							</g>
						</g>
					</g>
					<g>
						<g>
							<polygon style="fill:#FFAD9E;" points="634.885,431.414 636.989,446.15 608.912,446.22 625.058,438.69 624.29,430.685 
															"/>
							<polygon style="fill:#D07C6C;" points="624.29,430.685 634.885,431.414 636.989,446.15 							"/>
							<polygon points="623.083,438.648 608.912,446.22 636.989,446.15 636.091,438.593 							"/>
							<g>
								
									<line style="fill:none;stroke:#FFFFFF;stroke-width:0.4746;stroke-miterlimit:10;" x1="620.878" y1="439.628" x2="624.017" y2="441.496"/>
								
									<line style="fill:none;stroke:#FFFFFF;stroke-width:0.4746;stroke-miterlimit:10;" x1="618.178" y1="441.011" x2="621.317" y2="442.879"/>
							</g>
							
								<rect x="608.738" y="446.085" transform="matrix(1 -0.0098 0.0098 1 -4.3797 6.1495)" style="fill:#3A83B5;stroke:#3A83B5;stroke-width:0.6837;stroke-miterlimit:10;" width="28.549" height="4.52"/>
						</g>
					</g>
					<g>
						<path d="M638.336,274.76l27.529,0.318c0,0,6.144,9.776,8.752,20.846c4.565,19.375,5.222,62.074,17.822,137.273l-11.669,0.843
							l-29.037-118.948c-0.448-1.634-2.861-1.272-2.81,0.421l-13.982,116.199h-10.608c0,0-6.753-117.746,4.031-138.122
							C637.596,276.148,638.336,274.76,638.336,274.76z"/>
					</g>
				</g>
			</g>
			<g>
				<g>
					<path style="fill:#A60F3C;" d="M658.41,196.756c-0.198-2.697-2.456-4.812-5.198-4.785h0c-2.744,0.027-4.961,2.19-5.103,4.893
						c-7.572,3.963-3.567,15.048-3.567,15.048s0.402,0.741,1.203,1.688l-3.414,24.17c0,0,10.469,13.586,16.342,2.378
						c5.873-11.209,0.355-0.729,0.355-0.729l-0.336-23.245c3.335-2.036,5.234-5.503,5.234-5.503
						C664.742,206.92,663.36,199.635,658.41,196.756z"/>
					<g>
						
							<path style="fill:#FFAD9E;stroke:#FFAD9E;stroke-width:0.9141;stroke-linecap:round;stroke-linejoin:round;stroke-miterlimit:10;" d="
							M648.825,215.802c0,0-3.14,16.472-3.328,17.744c0,0,8.197,7.453,15.135,0.359c0,0-1.223-3.821-3.475-13.667L648.825,215.802z"
							/>
						<path d="M658.086,219.129c0.028,2.144-2.884,4.783-4.875,4.929c-2.425,0.178-4.619-3.6-4.891-5.344
							c-0.229-1.466,3.464-3.361,5.46-3.387C655.776,215.301,658.057,216.985,658.086,219.129z"/>
					</g>
					<g>
						<g>
							<g>
								
									<path style="fill:#FFAD9E;stroke:#FFAD9E;stroke-width:0.9141;stroke-linecap:round;stroke-linejoin:round;stroke-miterlimit:10;" d="
									M644.259,210.484l2.775-0.224l0.25,3.095l-2.776,0.224c-0.855,0.069-1.603-0.568-1.672-1.423v0
									C642.767,211.301,643.404,210.553,644.259,210.484z"/>
								
									<path style="fill:#D6958B;stroke:#D6958B;stroke-width:0.9141;stroke-linecap:round;stroke-linejoin:round;stroke-miterlimit:10;" d="
									M644.215,211.316l1.146-0.092l0.103,1.278l-1.146,0.092c-0.353,0.029-0.662-0.234-0.69-0.587l0,0
									C643.599,211.653,643.862,211.344,644.215,211.316z"/>
							</g>
							<g>
								
									<path style="fill:#FFAD9E;stroke:#FFAD9E;stroke-width:0.9141;stroke-linecap:round;stroke-linejoin:round;stroke-miterlimit:10;" d="
									M663.174,212.216l-2.781-0.143l0.16-3.101l2.781,0.143c0.856,0.044,1.515,0.774,1.471,1.63l0,0
									C664.76,211.602,664.03,212.26,663.174,212.216z"/>
								
									<path style="fill:#D6958B;stroke:#D6958B;stroke-width:0.9141;stroke-linecap:round;stroke-linejoin:round;stroke-miterlimit:10;" d="
									M663.329,209.987l-1.147-0.079l-0.088,1.279l1.147,0.079c0.353,0.024,0.659-0.243,0.683-0.596l0,0
									C663.949,210.317,663.682,210.012,663.329,209.987z"/>
							</g>
							
								<path style="fill:#FFAD9E;stroke:#FFAD9E;stroke-width:0.9141;stroke-linecap:round;stroke-linejoin:round;stroke-miterlimit:10;" d="
								M654.637,201.453L654.637,201.453c5.165,0.278,8.329,4.762,8.051,9.926l-0.021,0.395c-0.278,5.164-4.613,9.557-8.945,9.253
								l-0.036-0.011c-3.422-0.401-9.088-5.17-8.81-10.334l0.021-0.395C645.174,205.124,649.474,201.175,654.637,201.453z"/>
						</g>
						<g>
							<path style="fill:#080229;" d="M655.462,211.813c0.006,0.371,0.24,0.669,0.522,0.664c0.282-0.005,0.505-0.31,0.498-0.681
								c-0.006-0.371-0.24-0.668-0.522-0.663C655.679,211.137,655.456,211.442,655.462,211.813z"/>
							<path style="fill:#080229;" d="M651.484,211.878c-0.021,0.371,0.189,0.685,0.471,0.701c0.281,0.016,0.527-0.271,0.548-0.642
								c0.021-0.371-0.189-0.685-0.47-0.701C651.751,211.22,651.505,211.507,651.484,211.878z"/>
							<path style="fill:#D07C6C;" d="M653.286,213.981l1.345,0.016c0.166,0.002,0.278-0.212,0.212-0.402l-0.591-1.698
								c-0.075-0.216-0.315-0.23-0.407-0.023l-0.754,1.682C653.006,213.745,653.113,213.978,653.286,213.981z"/>
							<path style="fill:#080229;" d="M650.156,210.189c-0.409,0.152,0.407-0.792,0.912-0.794c0.505-0.002,0.917,0.35,0.919,0.787
								C651.987,210.181,651.139,209.824,650.156,210.189z"/>
							<path style="fill:#080229;" d="M657.714,209.995c0.417,0.13-0.449-0.769-0.954-0.744c-0.505,0.025-0.897,0.399-0.875,0.835
								C655.885,210.086,656.713,209.684,657.714,209.995z"/>
						</g>
						<path style="fill:#FFFFFF;" d="M654.814,216.131l0.32-0.085c1.129-0.3,1.915-1.029,1.755-1.63l0,0l-4.408,1.171l0,0
							C652.641,216.187,653.685,216.43,654.814,216.131z"/>
					</g>
					<g>
						<path style="fill:#A60F3C;" d="M649.285,201.728c8.624,0.471,13.793,7.099,13.793,7.099s0.36-11.787-12.773-9.746
							C641.822,200.399,648.577,201.689,649.285,201.728z"/>
						<path style="fill:#A60F3C;" d="M650.373,201.369c0,0-2.811,6.08-3.606,7.175c-0.908,1.251-2.849,0.348-2.849,0.348
							S642.93,200.377,650.373,201.369z"/>
					</g>
				</g>
			</g>
			<g>
				
					<path style="fill:#FFAD9E;stroke:#FFAD9E;stroke-width:0.9141;stroke-linecap:round;stroke-linejoin:round;stroke-miterlimit:10;" d="
					M626.203,212.843c0.135-0.197,2.853-39.741,3.394-44.803c0.084-0.782,0.591-1.453,1.32-1.748l7.369-2.98
					c1.143-0.462,2.438,0.139,2.823,1.31l0,0c0.067,0.203,0.102,0.415,0.106,0.628l0.132,7.592c0.022,1.242-0.613,2.404-1.67,3.056
					l0,0l-0.307,33.349L626.203,212.843z"/>
				<path style="fill:#FFFFFF;" d="M671.856,252.013"/>
				
					<path style="fill:#FFAD9E;stroke:#FFAD9E;stroke-width:0.9141;stroke-linecap:round;stroke-linejoin:round;stroke-miterlimit:10;" d="
					M678.87,213.558c-0.13-0.201-1.772-39.804-2.177-44.879c-0.062-0.784-0.551-1.469-1.272-1.783l-7.286-3.179
					c-1.13-0.493-2.441,0.073-2.858,1.233l0,0c-0.072,0.201-0.114,0.412-0.123,0.625l-0.338,7.585
					c-0.055,1.241,0.548,2.419,1.586,3.1l0,0l-0.598,33.345L678.87,213.558z"/>
				<path style="fill:#C73E45;stroke:#C73E45;stroke-width:0.6837;stroke-miterlimit:10;" d="M634.934,263.254l36.5,0.208
					c0,0,2.983-7.881,3.667-10.6c2.493-9.905,5.297-32.814,5.043-40.545l-14.666-3.824c0.471,13.609-4.783,21.798-4.783,21.798
					s-3.743,5.331-9.016,5.136c-5.272-0.195-6.979-3.03-6.979-3.03s-3.993-9.983-4.944-24.417l-15.434,3.579
					c-0.464,7.721,5.935,32.183,7.581,42.263C632.973,260.371,634.942,263.038,634.934,263.254z"/>
			</g>
		</g>
		<g>
			<path style="fill:#F54A53;" d="M686.831,162.239c-0.537,0-1.012,0.244-1.336,0.622v-1.613c0-1.376-1.116-2.492-2.492-2.492
				c-1.376,0-2.492,1.115-2.492,2.492v6.034h-18.488v-6.034c0-1.376-1.116-2.492-2.492-2.492c-1.376,0-2.492,1.115-2.492,2.492
				v1.613c-0.324-0.378-0.799-0.622-1.336-0.622c-0.976,0-1.767,0.791-1.767,1.767v11.813c0,0.976,0.791,1.767,1.767,1.767
				c0.537,0,1.012-0.244,1.336-0.622v0.943c0,1.376,1.115,2.492,2.492,2.492c1.376,0,2.492-1.115,2.492-2.492v-5.465h18.488v5.465
				c0,1.376,1.116,2.492,2.492,2.492c1.376,0,2.492-1.115,2.492-2.492v-0.943c0.324,0.378,0.799,0.622,1.336,0.622
				c0.976,0,1.767-0.791,1.767-1.767v-11.813C688.599,163.03,687.807,162.239,686.831,162.239z"/>
			<g>
				
					<path style="fill:#FFAD9E;stroke:#FFAD9E;stroke-width:0.9141;stroke-linecap:round;stroke-linejoin:round;stroke-miterlimit:10;" d="
					M664.433,167.35l4.774,2.387l7.956,5.092l-0.159-7.32l-8.868-3.792C668.136,163.717,664.751,161.78,664.433,167.35z"/>
				
					<path style="fill:#FFC5BA;stroke:#FFC5BA;stroke-width:0.9355;stroke-linecap:round;stroke-linejoin:round;stroke-miterlimit:10;" d="
					M665.326,172.052c0.012-0.913,0.693-1.674,1.599-1.792l4.141-0.542c0.441-0.058,0.864,0.192,1.028,0.605l0,0
					c0.149,0.377,0.049,0.807-0.253,1.078l-3.497,3.152c-1.033,0.931-2.792,0.443-3.015-0.93c-0.015-0.092-0.022-0.186-0.021-0.28
					C665.314,172.905,665.32,172.458,665.326,172.052z"/>
			</g>
		</g>
		<g>
			<path style="fill:#F54A53;" d="M619.265,162.239c0.537,0,1.012,0.244,1.336,0.622v-1.613c0-1.376,1.116-2.492,2.492-2.492
				c1.376,0,2.492,1.115,2.492,2.492v6.034h18.488v-6.034c0-1.376,1.115-2.492,2.492-2.492c1.376,0,2.492,1.115,2.492,2.492v1.613
				c0.324-0.378,0.799-0.622,1.336-0.622c0.976,0,1.767,0.791,1.767,1.767v11.813c0,0.976-0.791,1.767-1.767,1.767
				c-0.537,0-1.012-0.244-1.336-0.622v0.943c0,1.376-1.116,2.492-2.492,2.492c-1.376,0-2.492-1.115-2.492-2.492v-5.465h-18.488
				v5.465c0,1.376-1.115,2.492-2.492,2.492c-1.376,0-2.492-1.115-2.492-2.492v-0.943c-0.324,0.378-0.799,0.622-1.336,0.622
				c-0.976,0-1.767-0.791-1.767-1.767v-11.813C617.498,163.03,618.289,162.239,619.265,162.239z"/>
			<g>
				
					<path style="fill:#FFAD9E;stroke:#FFAD9E;stroke-width:0.9141;stroke-linecap:round;stroke-linejoin:round;stroke-miterlimit:10;" d="
					M641.664,167.35l-4.774,2.387l-7.956,5.092l0.159-7.32l8.868-3.792C637.961,163.717,641.345,161.78,641.664,167.35z"/>
				
					<path style="fill:#FFC5BA;stroke:#FFC5BA;stroke-width:0.9355;stroke-linecap:round;stroke-linejoin:round;stroke-miterlimit:10;" d="
					M640.93,171.734c-0.012-0.913-0.693-1.674-1.599-1.792l-4.141-0.541c-0.441-0.058-0.864,0.192-1.028,0.605l0,0
					c-0.149,0.377-0.048,0.807,0.253,1.078l3.497,3.152c1.033,0.931,2.792,0.443,3.015-0.93c0.015-0.092,0.022-0.186,0.021-0.28
					C640.942,172.587,640.936,172.14,640.93,171.734z"/>
			</g>
		</g>
	</g>
	<g>
		<g>
			<g>
				<g>
					<rect x="142.704" y="376.372" style="fill:#CF3821;" width="150.508" height="15.611"/>
					<g>
						
							<text transform="matrix(1 0 0 1 153.0607 388.0993)" style="fill:#FFFFFF; font-family:'CooperHewitt-Bold'; font-size:9.3431px;">PLEASE KEEP A SAFE DISTANCE</text>
					</g>
				</g>
			</g>
			<g>
				<path style="fill:#000839;" d="M148.549,398.505h-9.656c-1.147,0-2.076-0.93-2.076-2.076v-24.845
					c0-1.147,0.93-2.076,2.076-2.076h9.656c1.147,0,2.076,0.93,2.076,2.076v24.845C150.626,397.575,149.696,398.505,148.549,398.505
					z"/>
				<rect x="141.481" y="397.84" style="fill:#000839;" width="4.48" height="66.227"/>
				<path style="fill:#000839;" d="M153.451,464.953h-19.46v-1.538c0-1.147,0.93-2.076,2.076-2.076h15.307
					c1.147,0,2.076,0.929,2.076,2.076V464.953z"/>
			</g>
			<g>
				<path style="fill:#000839;" d="M302.848,398.505h-9.656c-1.147,0-2.076-0.93-2.076-2.076v-24.845
					c0-1.147,0.93-2.076,2.076-2.076h9.656c1.147,0,2.076,0.93,2.076,2.076v24.845C304.925,397.575,303.995,398.505,302.848,398.505
					z"/>
				<rect x="295.78" y="397.84" style="fill:#000839;" width="4.48" height="66.227"/>
				<path style="fill:#000839;" d="M307.75,464.953h-19.46v-1.538c0-1.147,0.93-2.076,2.076-2.076h15.307
					c1.147,0,2.076,0.929,2.076,2.076V464.953z"/>
			</g>
		</g>
		<g>
			<g>
				<g>
					<rect x="436.671" y="376.372" style="fill:#CF3821;" width="150.508" height="15.611"/>
					<g>
						
							<text transform="matrix(1 0 0 1 447.027 388.0993)" style="fill:#FFFFFF; font-family:'CooperHewitt-Bold'; font-size:9.3431px;">PLEASE KEEP A SAFE DISTANCE</text>
					</g>
				</g>
			</g>
			<g>
				<path style="fill:#000839;" d="M442.516,398.505h-9.656c-1.147,0-2.076-0.93-2.076-2.076v-24.845
					c0-1.147,0.93-2.076,2.076-2.076h9.656c1.147,0,2.076,0.93,2.076,2.076v24.845C444.592,397.575,443.662,398.505,442.516,398.505
					z"/>
				<rect x="435.447" y="397.84" style="fill:#000839;" width="4.48" height="66.227"/>
				<path style="fill:#000839;" d="M447.417,464.953h-19.46v-1.538c0-1.147,0.929-2.076,2.076-2.076h15.307
					c1.147,0,2.076,0.929,2.076,2.076V464.953z"/>
			</g>
			<g>
				<path style="fill:#000839;" d="M596.815,398.505h-9.656c-1.147,0-2.076-0.93-2.076-2.076v-24.845
					c0-1.147,0.93-2.076,2.076-2.076h9.656c1.147,0,2.076,0.93,2.076,2.076v24.845C598.891,397.575,597.961,398.505,596.815,398.505
					z"/>
				<rect x="589.746" y="397.84" style="fill:#000839;" width="4.48" height="66.227"/>
				<path style="fill:#000839;" d="M601.716,464.953h-19.46v-1.538c0-1.147,0.929-2.076,2.076-2.076h15.307
					c1.147,0,2.076,0.929,2.076,2.076V464.953z"/>
			</g>
		</g>
	</g>
	<g>
		<g>
			<path style="opacity:0.54;fill:#768ABF;stroke:#768ABF;stroke-width:0.7555;stroke-miterlimit:10;" d="M346.553,448.59
				c0,2.571-10.571,4.656-23.61,4.656c-13.04,0-23.61-2.084-23.61-4.656s10.571-4.656,23.61-4.656
				C335.982,443.934,346.553,446.019,346.553,448.59z"/>
			<path style="opacity:0.54;fill:#768ABF;stroke:#768ABF;stroke-width:0.7555;stroke-miterlimit:10;" d="M420.698,448.59
				c0,2.571-10.571,4.656-23.61,4.656s-23.61-2.084-23.61-4.656s10.571-4.656,23.61-4.656S420.698,446.019,420.698,448.59z"/>
			<g>
				<g>
					<g>
						<polygon style="fill:#F59F89;" points="347.281,431.479 343.357,448.539 317.255,448.539 317.255,446.477 332.097,437.853 
							333.917,431.792 						"/>
						<path style="fill:#E8996F;" d="M332.097,437.853c0.86-0.549,15.184-6.374,15.184-6.374l-13.364,0.312L332.097,437.853z"/>
						<polygon style="fill:#C73E45;stroke:#C73E45;stroke-width:0.6837;stroke-miterlimit:10;" points="331.91,437.853 
							345.558,437.666 343.17,448.539 317.067,448.539 317.067,446.477 						"/>
						<path style="fill:none;stroke:#FFFFFF;stroke-width:0.957;stroke-miterlimit:10;" d="M334.072,448.978
							c0-0.477,3.182-7.32,11.139-7.002"/>
					</g>
				</g>
				<g>
					<g>
						<polygon style="fill:#F59F89;" points="391.22,431.479 395.144,448.539 421.247,448.539 421.247,446.477 406.404,437.853 
							404.584,431.792 						"/>
						<path style="fill:#E8996F;" d="M406.404,437.853c-0.86-0.549-15.184-6.374-15.184-6.374l13.364,0.312L406.404,437.853z"/>
						<polygon style="fill:#C73E45;stroke:#C73E45;stroke-width:0.6837;stroke-miterlimit:10;" points="406.592,437.853 
							392.943,437.666 395.332,448.539 421.434,448.539 421.434,446.477 						"/>
						<path style="fill:none;stroke:#FFFFFF;stroke-width:0.957;stroke-miterlimit:10;" d="M404.43,448.978
							c0-0.477-3.183-7.32-11.139-7.002"/>
					</g>
				</g>
				<g>
					<path d="M407.395,415.951c-1.181-19.649-3.758-78.896-11.583-132.624l-51.557,3.183l-15.068,129.616
						c-0.306,2.637,0.96,5.048,3.007,6.383l1.241,10.238l14.162,0.796l2.707-10.821l-0.504-0.013
						c1.872-0.955,3.249-2.765,3.583-4.959L365.9,335.52c1.29-3.906,5.615-3.867,6.999,0l11.85,82.39
						c0.209,1.299,0.784,2.455,1.604,3.379h-0.564l3.978,11.457h14.958l0.796-11.457h-0.287
						C406.668,419.974,407.521,418.047,407.395,415.951z"/>
				</g>
				
					<line style="fill:none;stroke:#FFFFFF;stroke-width:0.957;stroke-miterlimit:10;" x1="375.444" y1="355.889" x2="405.36" y2="369.892"/>
				
					<line style="fill:none;stroke:#FFFFFF;stroke-width:0.957;stroke-miterlimit:10;" x1="375.444" y1="367.346" x2="405.36" y2="381.349"/>
			</g>
			<g>
				<path style="fill:#D97E70;" d="M323.039,248.955c0,0-4.031,35.857,1.909,40.949l8.487-37.978L323.039,248.955z"/>
				<g>
					<path style="fill:#FFFFFF;" d="M391.063,210.12c-4.087,0.039-8.944,0.057-14.695,0.039c-6.774,1.06-14.941,0.68-26.212,0.314
						c-1.265,0.168-2.746,0.25-4.34,0.268c-11.464,0.132-21.214,8.382-23.267,19.66c-1.506,8.271-3.1,16.078-3.942,17.271
						l23.261,5.82c0.948,22.391,0,43.028,0,43.028l57.127-4.464l-1.909-41.716l14.597-3.296c-0.02-1.579-0.179-9.254-0.349-17.254
						C411.101,218.788,402.066,210.013,391.063,210.12z"/>
					
						<rect x="341.259" y="246.548" style="fill:#3A83B5;stroke:#3A83B5;stroke-width:0.6837;stroke-miterlimit:10;" width="55.202" height="7.981"/>
				</g>
				<g>
					<g>
						<path style="fill:#F59F89;" d="M373.234,194.978l0.604,17.735c0,0-9.325,10.15-18.991-1.341l4.291-17.301L373.234,194.978z"/>
						<path d="M373.5,179.361l0.048,16.702c0,0-8.954,17.057-15.052-1.067l5.275-17.106L373.5,179.361z"/>
					</g>
					<g>
						<g>
							<g>
								<g>
									<path style="fill:#F59F89;stroke:#F59F89;stroke-width:0.9732;stroke-miterlimit:10;" d="M355.585,184.813l2.937-0.513
										l0.318,3.47l-2.937,0.513c-0.905,0.158-1.709-0.491-1.797-1.449l0,0C354.019,185.876,354.68,184.971,355.585,184.813z"/>
									<path style="fill:#E79587;stroke:#E79587;stroke-width:0.9923;stroke-miterlimit:10;" d="M355.753,185.699l1.213-0.212
										l0.131,1.433l-1.212,0.212c-0.373,0.065-0.706-0.202-0.742-0.598l0,0C355.106,186.138,355.38,185.765,355.753,185.699z"/>
								</g>
								<g>
									<path style="fill:#F59F89;stroke:#F59F89;stroke-width:0.9732;stroke-miterlimit:10;" d="M378.227,186.203l-2.949,0.099
										l0.115-3.515l2.949-0.099c0.908-0.031,1.618,0.732,1.586,1.702l0,0C379.897,185.361,379.135,186.173,378.227,186.203z"/>
									<path style="fill:#E79587;stroke:#E79587;stroke-width:0.9923;stroke-miterlimit:10;" d="M378.35,183.817l-1.217,0.019
										l-0.071,1.452l1.217-0.019c0.375-0.006,0.694-0.336,0.714-0.736l0,0C379.012,184.131,378.724,183.811,378.35,183.817z"/>
								</g>
								<path style="fill:#F59F89;stroke:#F59F89;stroke-width:0.9732;stroke-miterlimit:10;" d="M365.873,197.975l-0.064,0.009
									c-6.891-0.41-9.335-5.326-8.853-11.182l0.037-0.448c0.483-5.857,4.606-14.88,10.066-14.754l-0.009-0.064
									c5.459,0.126,10.196,9.418,9.714,15.275l-0.037,0.448C376.244,193.115,373.625,198.266,365.873,197.975z"/>
							</g>
							<g>
								<path d="M365.057,185.248c-0.042,0.427-0.329,0.748-0.642,0.717c-0.313-0.031-0.532-0.401-0.491-0.828
									c0.042-0.427,0.329-0.748,0.642-0.718C364.879,184.45,365.099,184.822,365.057,185.248z"/>
								<path d="M370.202,185.223c-0.045,0.428-0.335,0.748-0.648,0.715c-0.312-0.033-0.529-0.407-0.484-0.835
									c0.045-0.428,0.335-0.749,0.648-0.715C370.03,184.421,370.247,184.794,370.202,185.223z"/>
								<path style="fill:#D97E70;" d="M367.981,188.732l-2.019-0.098c-0.249-0.012-0.399-0.335-0.282-0.607l1.038-2.427
									c0.132-0.309,0.492-0.307,0.613,0.003l0.981,2.525C368.422,188.413,368.241,188.745,367.981,188.732z"/>
								<path d="M361.894,182.521c-0.671,0.313,0.576-1.395,1.43-1.469c0.854-0.074,1.598,0.464,1.662,1.201
									C364.985,182.252,363.504,181.767,361.894,182.521z"/>
								<path d="M371.709,181.853c0.695,0.253-0.698-1.339-1.555-1.336c-0.857,0.002-1.55,0.603-1.548,1.343
									C368.606,181.86,370.039,181.246,371.709,181.853z"/>
							</g>
							<path style="fill:#FFFFFF;" d="M367.27,192.298l0.542-0.116c1.912-0.409,3.25-1.728,2.989-2.947l0,0l-7.465,1.597l0,0
								C363.597,192.052,365.358,192.708,367.27,192.298z"/>
						</g>
						<path d="M376.216,175.214c0.771-0.246,1.279-1.014,1.163-1.843c-0.116-0.835-0.823-1.438-1.641-1.456
							c0.091-0.288,0.123-0.587,0.055-0.881c-0.146-0.632-0.904-1.13-1.492-0.831c-0.106-2.291-2.086-4.348-4.408-4.581
							c-2.322-0.233-4.703,1.386-5.302,3.607c-0.535-0.504-1.07-1.007-1.605-1.511c-0.164-0.155-0.339-0.315-0.56-0.369
							c-0.527-0.128-0.997,0.424-1.077,0.952c-0.08,0.528,0.072,1.067,0.016,1.598c-0.562-0.352-0.993-0.874-1.541-1.246
							c-0.548-0.372-1.312-0.574-1.873-0.215c-0.578,0.369-0.685,1.198-0.425,1.822c0.159,0.383,0.426,0.704,0.724,1
							c-0.28-0.125-0.595-0.18-0.921-0.135c-0.927,0.129-1.574,0.985-1.446,1.912c0.078,0.559,0.422,1.013,0.885,1.259
							c-0.133,0.212-0.259,0.428-0.369,0.653c-0.685,1.402-0.922,2.995-0.862,4.527c0.029,0.728,0.914,4.97,1.577,5.104
							c0.362,0.073,3.471-7.477,4.416-9.308c0.984-0.337,2.067-1.047,2.13-1.667c0.224,0.791,0.549,1.694,1.339,1.961
							c0.644,0.217,1.376-0.104,1.83-0.605c0.454-0.502,0.689-1.153,0.914-1.786c0.53,0.837,1.335,1.503,2.266,1.872
							c0.574,0.227,1.265,0.332,1.787,0.001c0.17-0.108,0.296-0.277,0.37-0.465l-0.019,0.62c0.365,0.747,4.188,7.026,4.795,7.112
							c0.465,0.066-0.231-5.576-0.562-6.626C376.329,175.526,376.274,175.367,376.216,175.214z M372.065,173.689
							c0.039,0.03,0.086,0.048,0.127,0.074l-0.004,0.145C372.159,173.829,372.122,173.753,372.065,173.689z"/>
					</g>
				</g>
			</g>
			<polygon style="opacity:0.22;fill:#768ABF;stroke:#768ABF;stroke-width:0.7555;stroke-miterlimit:10;" points="396.128,227.593 
				349.573,296.096 398.995,292.055 			"/>
		</g>
		<g>
			<g>
				<g>
					<path style="fill:#C73E45;stroke:#C73E45;stroke-width:0.6837;stroke-miterlimit:10;" d="M438.45,251.183h-1.882
						c-3.171,0-5.742-2.571-5.742-5.742v-37.208c0-3.171,2.571-5.742,5.742-5.742h1.882c3.171,0,5.742,2.571,5.742,5.742v37.208
						C444.192,248.612,441.621,251.183,438.45,251.183z"/>
					<path style="fill:#C73E45;stroke:#C73E45;stroke-width:0.6837;stroke-miterlimit:10;" d="M448.679,244.118h-1.336
						c-2.251,0-4.076-1.825-4.076-4.076v-26.411c0-2.251,1.825-4.076,4.076-4.076h1.336c2.251,0,4.076,1.825,4.076,4.076v26.411
						C452.755,242.293,450.93,244.118,448.679,244.118z"/>
				</g>
				<g>
					<path style="fill:#C73E45;stroke:#C73E45;stroke-width:0.6837;stroke-miterlimit:10;" d="M295.657,251.183h1.882
						c3.171,0,5.742-2.571,5.742-5.742v-37.208c0-3.171-2.571-5.742-5.742-5.742h-1.882c-3.171,0-5.742,2.571-5.742,5.742v37.208
						C289.915,248.612,292.486,251.183,295.657,251.183z"/>
					<path style="fill:#C73E45;stroke:#C73E45;stroke-width:0.6837;stroke-miterlimit:10;" d="M285.428,244.118h1.336
						c2.251,0,4.076-1.825,4.076-4.076v-26.411c0-2.251-1.825-4.076-4.076-4.076h-1.336c-2.251,0-4.076,1.825-4.076,4.076v26.411
						C281.352,242.293,283.177,244.118,285.428,244.118z"/>
				</g>
				
					<rect x="303.311" y="220.949" style="fill:#C73E45;stroke:#C73E45;stroke-width:0.6837;stroke-miterlimit:10;" width="135.788" height="8.062"/>
			</g>
			<path style="fill:#F59F89;" d="M408.412,221.248c0.362,4.094,0.044,4.643,0.479,7.726c0.145,1.027,0.194,0.615,1.131,0.439
				c2.007-0.378,3.318-0.805,4.409-0.663c1.628,0.211-4.938,10.893-4.938,10.893s-0.006,0.001-0.014,0.003
				c2.118,2.818,7.581,24.175,9.752,39.297c1.343,9.352-2.842,18.181-12.317,18.361l-1.757,0.012
				c-9.743,0.185-17.196-12.237-15.872-21.85c1.953-14.181,5.616-31.505,6.808-34.543c-0.002-0.004-0.006-0.008-0.008-0.012
				c-0.705-1.421-3.79-16.991-2.182-19.642C394.822,219.753,407.89,215.339,408.412,221.248z"/>
			<path style="fill:#F59F89;" d="M333.998,221.248c-0.362,4.094-0.044,4.643-0.479,7.726c-0.145,1.027-0.194,0.615-1.13,0.439
				c-2.007-0.378-3.318-0.805-4.409-0.663c-1.628,0.211,4.938,10.893,4.938,10.893s0.006,0.001,0.015,0.003
				c-2.118,2.818-7.581,24.175-9.752,39.297c-1.343,9.352,2.843,18.181,12.317,18.361l1.757,0.012
				c9.743,0.185,17.196-12.237,15.872-21.85c-1.953-14.181-5.616-31.505-6.808-34.543c0.002-0.004,0.006-0.008,0.008-0.012
				c0.705-1.421,4.631-16.673,3.022-19.324C348.429,220.072,334.52,215.339,333.998,221.248z"/>
		</g>
	</g>
</g>
</svg>
